<svg width="210.39" height="43" xmlns="http://www.w3.org/2000/svg">
 <defs>
  <style>.cls-1{fill:#243a80;}</style>
 </defs>
 <title>Middel 12</title>
 <g>
  <title>background</title>
  <rect fill="none" id="canvas_background" height="402" width="582" y="-1" x="-1"/>
 </g>
 <g>
  <title>Layer 1</title>
  <g id="Laag_2">
   <g id="Laag_1-2">
    <path id="svg_1" d="m-43.27,-273.07a6.81,6.81 0 0 0 -6.8,6.8l0,23.54a6.82,6.82 0 0 0 6.8,6.81l23.54,0a6.82,6.82 0 0 0 6.81,-6.81l0,-23.54a6.82,6.82 0 0 0 -6.81,-6.8l-23.54,0zm23.54,40.07l-23.54,0a9.74,9.74 0 0 1 -9.73,-9.73l0,-23.54a9.75,9.75 0 0 1 9.73,-9.73l23.54,0a9.74,9.74 0 0 1 9.73,9.73l0,23.54a9.73,9.73 0 0 1 -9.73,9.73" class="cls-1"/>
    <path id="svg_2" d="m-19,-262a3.58,3.58 0 1 1 -3.58,-3.58a3.58,3.58 0 0 1 3.58,3.58" class="cls-1"/>
    <path id="svg_3" d="m-19.56,-245.85a2.4,2.4 0 0 1 -2.44,2.39l-1.11,0a2.4,2.4 0 0 1 -2.4,-2.39l0,-8.42a2.41,2.41 0 0 1 2.4,-2.4l1.11,0a2.41,2.41 0 0 1 2.4,2.4l0,8.42l0.04,0z" class="cls-1"/>
    <path id="svg_4" d="m-27.92,-262a3.58,3.58 0 1 1 -3.58,-3.58a3.58,3.58 0 0 1 3.58,3.58" class="cls-1"/>
    <path id="svg_5" d="m-28.53,-245.85a2.39,2.39 0 0 1 -2.39,2.39l-1.15,0a2.39,2.39 0 0 1 -2.4,-2.39l0,-8.42a2.4,2.4 0 0 1 2.4,-2.4l1.15,0a2.4,2.4 0 0 1 2.39,2.4l0,8.42z" class="cls-1"/>
    <path id="svg_6" d="m-36.88,-262a3.58,3.58 0 1 1 -3.58,-3.58a3.59,3.59 0 0 1 3.58,3.58" class="cls-1"/>
    <path id="svg_7" d="m-37.49,-245.85a2.39,2.39 0 0 1 -2.4,2.39l-1.11,0a2.39,2.39 0 0 1 -2.4,-2.39l0,-8.42a2.4,2.4 0 0 1 2.4,-2.4l1.14,0a2.4,2.4 0 0 1 2.4,2.4l0,8.42l-0.03,0z" class="cls-1"/>
    <path id="svg_8" d="m12.11,-256.42l6.79,0l0,8.17a10.49,10.49 0 0 1 -3.22,1.62a12.64,12.64 0 0 1 -3.63,0.51a12.42,12.42 0 0 1 -4.42,-0.75a10.14,10.14 0 0 1 -3.38,-2.13a9.26,9.26 0 0 1 -2.17,-3.21a10.51,10.51 0 0 1 -0.76,-4a11,11 0 0 1 0.73,-4.08a9,9 0 0 1 2.08,-3.19a9.51,9.51 0 0 1 3.27,-2.12a11.63,11.63 0 0 1 4.29,-0.75a12.76,12.76 0 0 1 2.29,0.2a11,11 0 0 1 2,0.54a9.52,9.52 0 0 1 3,1.88l-1.21,1.83a1.09,1.09 0 0 1 -0.71,0.53a1.3,1.3 0 0 1 -1,-0.22q-0.49,-0.3 -1,-0.54a7.61,7.61 0 0 0 -1,-0.41a7.3,7.3 0 0 0 -1.06,-0.28a10.28,10.28 0 0 0 -1.44,-0.09a6.3,6.3 0 0 0 -2.5,0.48a5.19,5.19 0 0 0 -1.9,1.35a5.88,5.88 0 0 0 -1.23,2.08a8.43,8.43 0 0 0 -0.42,2.74a8.62,8.62 0 0 0 0.49,2.95a6.12,6.12 0 0 0 1.31,2.17a5.56,5.56 0 0 0 2,1.35a7.07,7.07 0 0 0 2.62,0.47a7.22,7.22 0 0 0 1.76,-0.2a8.42,8.42 0 0 0 1.5,-0.54l0,-3.33l-2.19,0a0.89,0.89 0 0 1 -0.63,-0.21a0.7,0.7 0 0 1 -0.22,-0.54l-0.04,-2.28z" class="cls-1"/>
    <path id="svg_9" d="m25.77,-258.11a6.37,6.37 0 0 1 1.54,-1.89a3.22,3.22 0 0 1 2,-0.7a2.52,2.52 0 0 1 1.55,0.45l-0.24,2.79a0.68,0.68 0 0 1 -0.21,0.37a0.67,0.67 0 0 1 -0.39,0.11a5,5 0 0 1 -0.63,-0.07a5.27,5.27 0 0 0 -0.76,-0.06a2.67,2.67 0 0 0 -0.93,0.15a2.25,2.25 0 0 0 -0.71,0.43a3.08,3.08 0 0 0 -0.57,0.66a7.55,7.55 0 0 0 -0.42,0.87l0,8.61l-3.76,0l0,-14.04l2.22,0a1.19,1.19 0 0 1 0.79,0.2a1.34,1.34 0 0 1 0.32,0.71l0.2,1.41z" class="cls-1"/>
    <path id="svg_10" d="m38.29,-260.86a7.85,7.85 0 0 1 2.88,0.51a6.45,6.45 0 0 1 2.22,1.44a6.23,6.23 0 0 1 1.43,2.27a8.43,8.43 0 0 1 0.51,3a8.5,8.5 0 0 1 -0.51,3a6.23,6.23 0 0 1 -3.65,3.73a8.6,8.6 0 0 1 -5.78,0a6.29,6.29 0 0 1 -2.23,-1.45a6.52,6.52 0 0 1 -1.44,-2.28a8.5,8.5 0 0 1 -0.51,-3a8.43,8.43 0 0 1 0.51,-3a6.23,6.23 0 0 1 3.67,-3.71a7.92,7.92 0 0 1 2.9,-0.51zm0,11.67a2.73,2.73 0 0 0 2.39,-1.11a5.78,5.78 0 0 0 0.78,-3.31a5.76,5.76 0 0 0 -0.78,-3.3a2.73,2.73 0 0 0 -2.39,-1.09a2.77,2.77 0 0 0 -2.43,1.11a5.76,5.76 0 0 0 -0.78,3.3a5.78,5.78 0 0 0 0.78,3.31a2.77,2.77 0 0 0 2.43,1.09z" class="cls-1"/>
    <path id="svg_11" d="m60,-260.65l0,14.06l-2.32,0a0.88,0.88 0 0 1 -0.93,-0.65l-0.25,-1a10.15,10.15 0 0 1 -0.87,0.75a5.22,5.22 0 0 1 -1,0.58a4.85,4.85 0 0 1 -1.11,0.39a5.72,5.72 0 0 1 -1.28,0.13a5,5 0 0 1 -2,-0.39a4.09,4.09 0 0 1 -1.5,-1.11a4.82,4.82 0 0 1 -0.91,-1.69a7,7 0 0 1 -0.32,-2.16l0,-8.91l3.77,0l0,8.93a2.79,2.79 0 0 0 0.54,1.83a2,2 0 0 0 1.6,0.64a3.32,3.32 0 0 0 1.49,-0.34a5.78,5.78 0 0 0 1.32,-0.95l0,-10.11l3.77,0z" class="cls-1"/>
    <path id="svg_12" d="m66,-258.91a8.11,8.11 0 0 1 0.9,-0.86a5.55,5.55 0 0 1 1,-0.66a5.21,5.21 0 0 1 1.18,-0.44a5.34,5.34 0 0 1 1.36,-0.16a4.4,4.4 0 0 1 2.08,0.49a4.54,4.54 0 0 1 1.63,1.4a7.07,7.07 0 0 1 1.07,2.26a11.33,11.33 0 0 1 0.38,3.06a9.41,9.41 0 0 1 -0.43,2.92a7.17,7.17 0 0 1 -1.17,2.33a5.74,5.74 0 0 1 -1.9,1.53a5.51,5.51 0 0 1 -2.48,0.56a4.87,4.87 0 0 1 -1.94,-0.35a4.67,4.67 0 0 1 -1.43,-0.92l0,5.6l-3.77,0l0,-18.61l2.32,0a0.92,0.92 0 0 1 1,0.66l0.2,1.19zm0.02,7.32a3,3 0 0 0 1.15,0.86a3.69,3.69 0 0 0 1.33,0.24a2.92,2.92 0 0 0 1.24,-0.25a2.53,2.53 0 0 0 1,-0.82a4.28,4.28 0 0 0 0.62,-1.41a8.6,8.6 0 0 0 0.22,-2a9.42,9.42 0 0 0 -0.19,-2a3.83,3.83 0 0 0 -0.52,-1.32a1.94,1.94 0 0 0 -0.81,-0.73a2.45,2.45 0 0 0 -1.06,-0.22a3.28,3.28 0 0 0 -1.67,0.38a4.64,4.64 0 0 0 -1.28,1.14l-0.03,6.13z" class="cls-1"/>
    <path id="svg_13" d="m103.38,-256.74a10.76,10.76 0 0 1 -0.73,4a9.28,9.28 0 0 1 -5.26,5.33a11.54,11.54 0 0 1 -8.29,0a9.32,9.32 0 0 1 -5.28,-5.33a11.43,11.43 0 0 1 0,-8a9.49,9.49 0 0 1 2.07,-3.2a9.66,9.66 0 0 1 3.21,-2.12a11.54,11.54 0 0 1 8.29,0a9.64,9.64 0 0 1 3.2,2.13a9.42,9.42 0 0 1 2.06,3.21a10.7,10.7 0 0 1 0.73,3.98zm-4.19,0a8.62,8.62 0 0 0 -0.41,-2.79a5.82,5.82 0 0 0 -1.18,-2.1a4.9,4.9 0 0 0 -1.87,-1.32a7,7 0 0 0 -5,0a5,5 0 0 0 -1.88,1.32a6,6 0 0 0 -1.18,2.1a8.9,8.9 0 0 0 -0.41,2.79a8.92,8.92 0 0 0 0.41,2.8a5.89,5.89 0 0 0 1.18,2.1a5.1,5.1 0 0 0 1.88,1.31a7,7 0 0 0 5,0a5,5 0 0 0 1.87,-1.31a5.74,5.74 0 0 0 1.18,-2.1a8.64,8.64 0 0 0 0.41,-2.8z" class="cls-1"/>
    <path id="svg_14" d="m106.38,-246.37l0,-11.36l-1.09,-0.19a1.68,1.68 0 0 1 -0.69,-0.3a0.8,0.8 0 0 1 -0.26,-0.63l0,-1.5l2,0l0,-0.93a6,6 0 0 1 0.38,-2.17a4.62,4.62 0 0 1 1.07,-1.66a4.77,4.77 0 0 1 1.7,-1a6.81,6.81 0 0 1 2.28,-0.37a7.07,7.07 0 0 1 0.94,0.06c0.29,0.05 0.59,0.11 0.89,0.19l-0.08,1.85a0.58,0.58 0 0 1 -0.36,0.56a2.22,2.22 0 0 1 -0.75,0.13a4.1,4.1 0 0 0 -1,0.12a1.84,1.84 0 0 0 -0.77,0.41a1.76,1.76 0 0 0 -0.47,0.8a3.92,3.92 0 0 0 -0.17,1.23l0,0.82l3.49,0l0,2.62l-3.37,0l0,11.32l-3.74,0z" class="cls-1"/>
    <path id="svg_15" d="m117.12,-246.37l0,-11.36l-1.12,-0.19a1.68,1.68 0 0 1 -0.69,-0.3a0.77,0.77 0 0 1 -0.27,-0.63l0,-1.5l2.05,0l0,-0.93a6,6 0 0 1 0.38,-2.17a4.49,4.49 0 0 1 1.07,-1.66a4.77,4.77 0 0 1 1.7,-1a6.81,6.81 0 0 1 2.28,-0.37a7.07,7.07 0 0 1 0.94,0.06c0.29,0.05 0.59,0.11 0.89,0.19l-0.08,1.85a0.58,0.58 0 0 1 -0.36,0.56a2.22,2.22 0 0 1 -0.75,0.13a4.1,4.1 0 0 0 -1,0.12a1.69,1.69 0 0 0 -1.25,1.21a4.27,4.27 0 0 0 -0.16,1.23l0,0.82l3.49,0l0,2.62l-3.37,0l0,11.32l-3.75,0z" class="cls-1"/>
    <path id="svg_16" d="m130.27,-264.43a2.06,2.06 0 0 1 -0.19,0.89a2.61,2.61 0 0 1 -0.51,0.72a2.39,2.39 0 0 1 -1.67,0.67a2.2,2.2 0 0 1 -0.88,-0.18a2.29,2.29 0 0 1 -0.73,-0.49a2.39,2.39 0 0 1 -0.5,-0.72a2.21,2.21 0 0 1 -0.18,-0.89a2.18,2.18 0 0 1 0.18,-0.89a2.31,2.31 0 0 1 0.5,-0.73a2.13,2.13 0 0 1 0.73,-0.49a2.2,2.2 0 0 1 0.88,-0.18a2.36,2.36 0 0 1 0.92,0.18a2.22,2.22 0 0 1 0.75,0.49a2.52,2.52 0 0 1 0.51,0.73a2,2 0 0 1 0.19,0.89zm-0.45,4l0,14.06l-3.76,0l0,-14.06l3.76,0z" class="cls-1"/>
    <path id="svg_17" d="m142.77,-257.5a1.28,1.28 0 0 1 -0.33,0.33a0.76,0.76 0 0 1 -0.44,0.17a0.94,0.94 0 0 1 -0.53,-0.16l-0.58,-0.34a5.85,5.85 0 0 0 -0.78,-0.34a3.52,3.52 0 0 0 -1.11,-0.16a3.32,3.32 0 0 0 -1.47,0.31a2.74,2.74 0 0 0 -1,0.88a4,4 0 0 0 -0.61,1.39a8,8 0 0 0 -0.2,1.85a5.4,5.4 0 0 0 0.87,3.3a2.82,2.82 0 0 0 2.37,1.14a3.87,3.87 0 0 0 0.89,-0.09a3.4,3.4 0 0 0 0.66,-0.22a2.8,2.8 0 0 0 0.48,-0.3l0.39,-0.3a2.06,2.06 0 0 1 0.37,-0.23a0.91,0.91 0 0 1 0.41,-0.09a0.83,0.83 0 0 1 0.69,0.33l1.07,1.37a6.53,6.53 0 0 1 -1.28,1.15a7,7 0 0 1 -1.41,0.72a7.13,7.13 0 0 1 -1.48,0.37a10.76,10.76 0 0 1 -1.49,0.1a6.33,6.33 0 0 1 -2.45,-0.48a5.75,5.75 0 0 1 -2,-1.41a6.82,6.82 0 0 1 -1.38,-2.28a8.69,8.69 0 0 1 -0.51,-3.08a8.86,8.86 0 0 1 0.45,-2.87a6.49,6.49 0 0 1 1.32,-2.29a6,6 0 0 1 2.16,-1.52a7.47,7.47 0 0 1 3,-0.56a7.25,7.25 0 0 1 2.83,0.52a7,7 0 0 1 2.18,1.5l-1.09,1.29z" class="cls-1"/>
    <path id="svg_18" d="m148.1,-253a4.48,4.48 0 0 0 1.12,2.89a3.42,3.42 0 0 0 2.48,0.91a4.39,4.39 0 0 0 1.3,-0.2a7.39,7.39 0 0 0 1,-0.41l0.78,-0.41a1.5,1.5 0 0 1 0.69,-0.19a0.81,0.81 0 0 1 0.68,0.33l1.09,1.37a6.2,6.2 0 0 1 -1.24,1.15a7.72,7.72 0 0 1 -1.51,0.72a7.86,7.86 0 0 1 -1.56,0.37a11.66,11.66 0 0 1 -1.53,0.1a7.76,7.76 0 0 1 -2.75,-0.48a6.19,6.19 0 0 1 -2.22,-1.43a6.77,6.77 0 0 1 -1.5,-2.36a9,9 0 0 1 -0.54,-3.26a7.59,7.59 0 0 1 0.47,-2.7a6.39,6.39 0 0 1 1.35,-2.21a6.51,6.51 0 0 1 2.16,-1.49a7.51,7.51 0 0 1 5.35,-0.13a5.42,5.42 0 0 1 3.25,3.26a7.51,7.51 0 0 1 0.46,2.73a6.12,6.12 0 0 1 0,0.69a1.42,1.42 0 0 1 -0.14,0.44a0.47,0.47 0 0 1 -0.26,0.22a1.22,1.22 0 0 1 -0.42,0.07l-8.51,0.02zm5.9,-2.26a3.75,3.75 0 0 0 -0.16,-1.12a2.44,2.44 0 0 0 -0.5,-0.94a2.26,2.26 0 0 0 -0.86,-0.65a2.92,2.92 0 0 0 -1.24,-0.24a2.88,2.88 0 0 0 -2.11,0.76a3.93,3.93 0 0 0 -1,2.19l5.87,0z" class="cls-1"/>
   </g>
  </g>
  <text font-weight="bold" xml:space="preserve" text-anchor="start" font-family="Helvetica, Arial, sans-serif" font-size="24" id="svg_19" y="28.9375" x="28.695007" stroke-width="0" stroke="#000" fill="#b87333">Copper Office</text>
 </g>
</svg>