<svg width="210.39" height="43" xmlns="http://www.w3.org/2000/svg">
 <defs>
  <style>.cls-1{fill:#fff;}</style>
 </defs>
 <title>Middel 13</title>
 <g>
  <title>background</title>
  <rect x="-1" y="-1" width="212.39" height="45" id="canvas_background" fill="none"/>
 </g>
 <g>
  <title>Layer 1</title>
  <g id="Laag_2" stroke="null">
   <g id="Laag_1-2" stroke="null">
    <path class="cls-1" d="m56.94935,-86.16024a8.36332,4.27605 0 0 0 -8.35104,4.26977l0,14.78094a8.3756,4.28233 0 0 0 8.35104,4.27604l28.90933,0a8.3756,4.28233 0 0 0 8.36332,-4.27604l0,-14.78094a8.3756,4.28233 0 0 0 -8.36332,-4.26977l-28.90933,0zm28.90933,25.16024l-28.90933,0a11.96163,6.11582 0 0 1 -11.94935,-6.10953l0,-14.78094a11.97391,6.12209 0 0 1 11.94935,-6.10953l28.90933,0a11.96163,6.11582 0 0 1 11.94935,6.10953l0,14.78094a11.94935,6.10954 0 0 1 -11.94935,6.10953" id="svg_1" stroke="null"/>
    <path class="cls-1" d="m86.75519,-79.2093a4.39658,2.24791 0 1 1 -4.39658,-2.24791a4.39658,2.24791 0 0 1 4.39658,2.24791" id="svg_2" stroke="null"/>
    <path class="cls-1" d="m86.06745,-69.06861a2.94742,1.50698 0 0 1 -2.99654,1.5007l-1.36319,0a2.94742,1.50698 0 0 1 -2.94742,-1.5007l0,-5.28697a2.95971,1.51326 0 0 1 2.94742,-1.50698l1.36319,0a2.95971,1.51326 0 0 1 2.94742,1.50698l0,5.28697l0.04912,0z" id="svg_3" stroke="null"/>
    <path class="cls-1" d="m75.80059,-79.2093a4.39658,2.24791 0 1 1 -4.39657,-2.24791a4.39658,2.24791 0 0 1 4.39657,2.24791" id="svg_4" stroke="null"/>
    <path class="cls-1" d="m75.05145,-69.06861a2.93514,1.5007 0 0 1 -2.93514,1.5007l-1.41231,0a2.93514,1.5007 0 0 1 -2.94742,-1.5007l0,-5.28697a2.94742,1.50698 0 0 1 2.94742,-1.50698l1.41231,0a2.94742,1.50698 0 0 1 2.93514,1.50698l0,5.28697z" id="svg_5" stroke="null"/>
    <path class="cls-1" d="m64.79687,-79.2093a4.39658,2.24791 0 1 1 -4.39658,-2.24791a4.40886,2.25419 0 0 1 4.39658,2.24791" id="svg_6" stroke="null"/>
    <path class="cls-1" d="m64.04773,-69.06861a2.93514,1.5007 0 0 1 -2.94742,1.5007l-1.36319,0a2.93514,1.5007 0 0 1 -2.94742,-1.5007l0,-5.28697a2.94742,1.50698 0 0 1 2.94742,-1.50698l1.40003,0a2.94742,1.50698 0 0 1 2.94743,1.50698l0,5.28697l-0.03685,0z" id="svg_7" stroke="null"/>
    <path class="cls-1" d="m124.96119,-75.70558l8.33876,0l0,5.13a12.8827,6.58675 0 0 1 -3.95447,1.01721a15.52311,7.93675 0 0 1 -4.45798,0.32023a15.25293,7.79861 0 0 1 -5.42817,-0.47093a12.45287,6.36698 0 0 1 -4.15096,-1.33744a11.37215,5.81442 0 0 1 -2.66496,-2.01558a12.90727,6.5993 0 0 1 -0.93336,-2.51163a13.50903,6.90698 0 0 1 0.89651,-2.56186a11.05284,5.65116 0 0 1 2.55444,-2.00303a11.67917,5.9714 0 0 1 4.01587,-1.33116a14.28273,7.30256 0 0 1 5.26852,-0.47093a15.67048,8.01209 0 0 1 2.81233,0.12558a13.50903,6.90698 0 0 1 2.45619,0.33907a11.69145,5.97767 0 0 1 3.68428,1.18047l-1.48599,1.14907a1.33862,0.68442 0 0 1 -0.87195,0.33279a1.59652,0.81628 0 0 1 -1.22809,-0.13814q-0.60177,-0.18838 -1.2281,-0.33907a9.34579,4.77837 0 0 0 -1.22809,-0.25745a8.96509,4.58372 0 0 0 -1.30178,-0.17581a12.62481,6.45488 0 0 0 -1.76845,-0.05651a7.73699,3.95581 0 0 0 -3.07024,0.30139a6.23872,3.18977 0 0 0 -2.33338,0.84768a7.22119,3.69209 0 0 0 -1.51055,1.30605a10.35283,5.29326 0 0 0 -0.5158,1.72046a10.58617,5.41256 0 0 0 0.60177,1.85233a7.51593,3.84279 0 0 0 1.6088,1.36256a6.8282,3.49116 0 0 0 2.45619,0.84767a8.68262,4.4393 0 0 0 3.2176,0.29512a8.86684,4.53349 0 0 0 2.16145,-0.12558a10.34055,5.28698 0 0 0 1.84214,-0.33908l0,-2.09093l-2.68953,0a1.093,0.55884 0 0 1 -0.7737,-0.13186a0.85967,0.43954 0 0 1 -0.27018,-0.33907l-0.04912,-1.43162z" id="svg_8" stroke="null"/>
    <path class="cls-1" d="m141.73695,-76.76675a7.82296,3.99977 0 0 1 1.89127,-1.18674a3.95446,2.02186 0 0 1 2.45618,-0.43954a3.0948,1.58233 0 0 1 1.90355,0.28256l-0.29474,1.75186a0.8351,0.42698 0 0 1 -0.25791,0.23233a0.82282,0.4207 0 0 1 -0.47895,0.06279a5.64923,2.88837 0 0 1 -0.7737,-0.03767a6.47206,3.30907 0 0 0 -0.93335,-0.03768a3.27901,1.67651 0 0 0 -1.14213,0.09419a2.76321,1.41279 0 0 0 -0.87195,0.27a3.78253,1.93395 0 0 0 -0.70001,0.41442a9.27211,4.7407 0 0 0 -0.5158,0.54628l0,5.40628l-4.61763,0l0,-8.81582l2.72637,0a1.46143,0.74721 0 0 1 0.97019,0.12558a1.64565,0.8414 0 0 1 0.39299,0.44582l0.24562,0.88535l0,-0.00001z" id="svg_9" stroke="null"/>
    <path class="cls-1" d="m157.11268,-78.49349a9.64054,4.92907 0 0 1 3.53692,0.32023a7.92121,4.05 0 0 1 2.72636,0.90419a7.65103,3.91186 0 0 1 1.75618,1.42535a10.35283,5.29326 0 0 1 0.62633,1.88372a10.4388,5.33721 0 0 1 -0.62633,1.88372a7.65103,3.91186 0 0 1 -4.48255,2.34209a10.56161,5.4 0 0 1 -7.09838,0a7.72471,3.94954 0 0 1 -2.73865,-0.91046a8.00717,4.09395 0 0 1 -1.76845,-1.43163a10.4388,5.33721 0 0 1 -0.62633,-1.88372a10.35283,5.29326 0 0 1 0.62633,-1.88372a7.65103,3.91186 0 0 1 4.5071,-2.32954a9.7265,4.97302 0 0 1 3.56147,-0.32023zm0,7.32768a3.3527,1.71419 0 0 0 2.93515,-0.69698a7.09838,3.6293 0 0 0 0.95791,-2.07837a7.07382,3.61675 0 0 0 -0.95791,-2.0721a3.3527,1.71419 0 0 0 -2.93515,-0.68442a3.40182,1.7393 0 0 0 -2.98426,0.69698a7.07382,3.61675 0 0 0 -0.95792,2.07209a7.09838,3.6293 0 0 0 0.95792,2.07838a3.40182,1.7393 0 0 0 2.98426,0.68442z" id="svg_10" stroke="null"/>
    <path class="cls-1" d="m183.7746,-78.36163l0,8.82837l-2.84917,0a1.08072,0.55256 0 0 1 -1.14213,-0.40814l-0.30702,-0.6279a12.46515,6.37326 0 0 1 -1.06845,0.47093a6.41065,3.27767 0 0 1 -1.22809,0.36418a5.95626,3.04535 0 0 1 -1.36318,0.24489a7.0247,3.59163 0 0 1 -1.57196,0.08162a6.14047,3.13953 0 0 1 -2.45619,-0.24488a5.0229,2.56814 0 0 1 -1.84214,-0.69698a5.91941,3.02651 0 0 1 -1.11757,-1.06116a8.59666,4.39535 0 0 1 -0.39299,-1.35628l0,-5.59465l4.62992,0l0,5.60721a3.42638,1.75186 0 0 0 0.66317,1.14907a2.45619,1.25581 0 0 0 1.96495,0.40186a4.07727,2.08465 0 0 0 1.82986,-0.21349a7.09838,3.6293 0 0 0 1.62108,-0.59651l0,-6.34814l4.62991,0z" id="svg_11" stroke="null"/>
    <path class="cls-1" d="m191.14317,-77.26907a9.95984,5.09233 0 0 1 1.10528,-0.54a6.81592,3.48488 0 0 1 1.22809,-0.41442a6.39837,3.2714 0 0 1 1.44916,-0.27628a6.55802,3.35302 0 0 1 1.6702,-0.10046a5.40361,2.76279 0 0 1 2.55444,0.30767a5.57555,2.8507 0 0 1 2.00179,0.87907a8.68262,4.4393 0 0 1 1.31406,1.41907a13.9143,7.11419 0 0 1 0.46668,1.9214a11.55636,5.9086 0 0 1 -0.52808,1.83348a8.80543,4.50209 0 0 1 -1.43687,1.46303a7.04926,3.60419 0 0 1 -2.33338,0.9607a6.7668,3.45977 0 0 1 -3.04567,0.35162a5.98082,3.05791 0 0 1 -2.38251,-0.21976a5.7352,2.93233 0 0 1 -1.75617,-0.57768l0,3.51628l-4.62991,0l0,-11.68535l2.84917,0a1.12985,0.57767 0 0 1 1.2281,0.41442l0.24562,0.74721zm0.02456,4.59628a3.68428,1.88372 0 0 0 1.41231,0.54a4.53167,2.31698 0 0 0 1.63336,0.1507a3.58603,1.83349 0 0 0 1.52284,-0.15698a3.10708,1.58861 0 0 0 1.22809,-0.51488a5.25624,2.68744 0 0 0 0.76142,-0.88535a10.56161,5.4 0 0 0 0.27018,-1.25582a11.56864,5.91488 0 0 0 -0.23334,-1.25581a4.7036,2.40488 0 0 0 -0.63861,-0.82884a2.3825,1.21814 0 0 0 -0.99475,-0.45837a3.00883,1.53837 0 0 0 -1.30178,-0.13814a4.02815,2.05953 0 0 0 -2.05092,0.2386a5.69836,2.91349 0 0 0 -1.57196,0.71582l-0.03684,3.84907z" id="svg_12" stroke="null"/>
    <path class="cls-1" d="m237.04932,-75.90651a13.21429,6.75628 0 0 1 -0.89651,2.51162a11.39671,5.82698 0 0 1 -6.45978,3.34675a14.1722,7.24605 0 0 1 -10.1809,0a11.44584,5.85209 0 0 1 -6.48433,-3.34675a14.03711,7.17698 0 0 1 0,-5.02325a11.65461,5.95884 0 0 1 2.54215,-2.0093a11.86339,6.06558 0 0 1 3.94218,-1.33117a14.1722,7.24605 0 0 1 10.1809,0a11.83882,6.05302 0 0 1 3.9299,1.33744a11.56864,5.91488 0 0 1 2.52987,2.01559a13.1406,6.71861 0 0 1 0.89651,2.49907l0.00001,0zm-5.14572,0a10.58617,5.41256 0 0 0 -0.50352,-1.75186a7.14751,3.65442 0 0 0 -1.44915,-1.31861a6.01766,3.07674 0 0 0 -2.29653,-0.82884a8.59666,4.39535 0 0 0 -6.14047,0a6.14047,3.13953 0 0 0 -2.30882,0.82884a7.36856,3.76744 0 0 0 -1.44915,1.31861a10.93004,5.58837 0 0 0 -0.50352,1.75186a10.9546,5.60093 0 0 0 0.50352,1.75814a7.23347,3.69837 0 0 0 1.44915,1.3186a6.26328,3.20233 0 0 0 2.30882,0.82256a8.59666,4.39535 0 0 0 6.14047,0a6.14047,3.13953 0 0 0 2.29653,-0.82256a7.04926,3.60419 0 0 0 1.44915,-1.3186a10.61073,5.42512 0 0 0 0.50352,-1.75814z" id="svg_13" stroke="null"/>
    <path class="cls-1" d="m240.7336,-69.39512l0,-7.13302l-1.33863,-0.1193a2.0632,1.05488 0 0 1 -0.84738,-0.18838a0.98247,0.50233 0 0 1 -0.3193,-0.39558l0,-0.94186l2.45618,0l0,-0.58395a7.36856,3.76744 0 0 1 0.46668,-1.36256a5.67379,2.90093 0 0 1 1.31406,-1.04233a5.85801,2.99512 0 0 1 2.08776,-0.6279a8.36332,4.27605 0 0 1 2.80005,-0.23233a8.68262,4.4393 0 0 1 1.15441,0.03768a9.16158,4.68419 0 0 1 1.09301,0.1193l-0.09825,1.16163a0.71229,0.36419 0 0 1 -0.44212,0.35162a2.72637,1.39395 0 0 1 -0.92107,0.08163a5.03519,2.57442 0 0 0 -1.22809,0.07535a2.25969,1.15535 0 0 0 -0.94563,0.25744a2.16145,1.10512 0 0 0 -0.57721,0.50233a4.81413,2.4614 0 0 0 -0.20877,0.77232l0,0.51489l4.28605,0l0,1.64511l-4.13868,0l0,7.10791l-4.59307,0z" id="svg_14" stroke="null"/>
    <path class="cls-1" d="m253.92333,-69.39512l0,-7.13302l-1.37547,-0.1193a2.0632,1.05488 0 0 1 -0.84738,-0.18838a0.94563,0.48349 0 0 1 -0.33159,-0.39558l0,-0.94186l2.51759,0l0,-0.58395a7.36856,3.76744 0 0 1 0.46668,-1.36256a5.51414,2.8193 0 0 1 1.31406,-1.04233a5.85801,2.99512 0 0 1 2.08776,-0.6279a8.36332,4.27605 0 0 1 2.80005,-0.23233a8.68262,4.4393 0 0 1 1.15441,0.03768a9.16158,4.68419 0 0 1 1.093,0.1193l-0.09824,1.16163a0.71229,0.36419 0 0 1 -0.44212,0.35162a2.72637,1.39395 0 0 1 -0.92107,0.08163a5.03519,2.57442 0 0 0 -1.22809,0.07535a2.07548,1.06116 0 0 0 -1.53512,0.75977a5.24396,2.68116 0 0 0 -0.19649,0.77232l0,0.51489l4.28604,0l0,1.64511l-4.13867,0l0,7.10791l-4.60535,0z" id="svg_15" stroke="null"/>
    <path class="cls-1" d="m270.07276,-80.73512a2.52987,1.29349 0 0 1 -0.23334,0.55884a3.20533,1.63884 0 0 1 -0.62633,0.45209a2.93514,1.5007 0 0 1 -2.05091,0.4207a2.70181,1.38139 0 0 1 -1.08073,-0.11302a2.81234,1.43791 0 0 1 -0.89651,-0.30768a2.93514,1.5007 0 0 1 -0.61404,-0.45209a2.71409,1.38767 0 0 1 -0.22106,-0.55884a2.67725,1.36884 0 0 1 0.22106,-0.55883a2.8369,1.45046 0 0 1 0.61404,-0.45838a2.61584,1.33744 0 0 1 0.89651,-0.30767a2.70181,1.38139 0 0 1 1.08073,-0.11302a2.8983,1.48186 0 0 1 1.12984,0.11302a2.72637,1.39395 0 0 1 0.92107,0.30767a3.0948,1.58233 0 0 1 0.62633,0.45838a2.45619,1.25581 0 0 1 0.23334,0.55883zm-0.55264,2.51163l0,8.82837l-4.61764,0l0,-8.82837l4.61764,0z" id="svg_16" stroke="null"/>
    <path class="cls-1" d="m285.42393,-76.38372a1.57196,0.80372 0 0 1 -0.40527,0.20721a0.93335,0.47721 0 0 1 -0.54036,0.10674a1.15441,0.59023 0 0 1 -0.65089,-0.10046l-0.71229,-0.21349a7.18435,3.67326 0 0 0 -0.95792,-0.21349a4.32289,2.21023 0 0 0 -1.36318,-0.10047a4.07727,2.08465 0 0 0 -1.8053,0.19466a3.36498,1.72046 0 0 0 -1.22809,0.55255a4.91237,2.51163 0 0 0 -0.74914,0.87279a9.82475,5.02326 0 0 0 -0.24562,1.16163a6.63171,3.3907 0 0 0 1.06844,2.0721a3.46322,1.7707 0 0 0 2.91058,0.71581a4.75272,2.43 0 0 0 1.09301,-0.05651a4.17552,2.13488 0 0 0 0.81054,-0.13814a3.43866,1.75814 0 0 0 0.58949,-0.18838l0.47895,-0.18837a2.52987,1.29349 0 0 1 0.4544,-0.14442a1.11756,0.5714 0 0 1 0.50352,-0.05651a1.01932,0.52116 0 0 1 0.84738,0.20721l1.31406,0.86023a8.01945,4.10023 0 0 1 -1.57196,0.7221a8.59666,4.39535 0 0 1 -1.73161,0.45209a8.75631,4.47698 0 0 1 -1.81758,0.23233a13.21429,6.75628 0 0 1 -1.82986,0.06279a7.77383,3.97465 0 0 1 -3.00883,-0.3014a7.06154,3.61047 0 0 1 -2.45619,-0.88535a8.3756,4.28233 0 0 1 -1.69477,-1.43163a10.67214,5.45651 0 0 1 -0.62633,-1.93395a10.88091,5.56326 0 0 1 0.55265,-1.80209a7.97033,4.07512 0 0 1 1.62108,-1.43791a7.25803,3.71093 0 0 1 2.65268,-0.95442a9.17386,4.69047 0 0 1 3.68428,-0.35163a8.90368,4.55233 0 0 1 3.47551,0.32652a8.59666,4.39535 0 0 1 2.67725,0.94186l-1.33863,0.81z" id="svg_17" stroke="null"/>
    <path class="cls-1" d="m291.96967,-73.55814a5.50186,2.81302 0 0 0 1.37547,1.81465a4.20008,2.14744 0 0 0 3.04567,0.57139a5.39133,2.75651 0 0 0 1.59652,-0.12558a9.07561,4.64023 0 0 0 1.2281,-0.25744l0.95791,-0.25744a1.84214,0.94186 0 0 1 0.84738,-0.1193a0.99476,0.50861 0 0 1 0.83511,0.20721l1.33862,0.86023a7.61418,3.89302 0 0 1 -1.52284,0.72209a9.48089,4.84744 0 0 1 -1.85442,0.4521a9.65282,4.93535 0 0 1 -1.91582,0.23232a14.31957,7.3214 0 0 1 -1.87899,0.06279a9.53001,4.87256 0 0 1 -3.37726,-0.30139a7.6019,3.88675 0 0 1 -2.72636,-0.89791a8.31419,4.25093 0 0 1 -1.84214,-1.48186a11.05284,5.65116 0 0 1 -0.66318,-2.04698a9.32123,4.76581 0 0 1 0.57721,-1.69535a7.70015,3.93698 0 0 1 4.31061,-2.32325a9.22298,4.71558 0 0 1 6.5703,-0.08163a6.65627,3.40326 0 0 1 3.9913,2.04698a9.22298,4.71558 0 0 1 0.56493,1.71418a7.51593,3.84279 0 0 1 0,0.43326a1.74389,0.89163 0 0 1 -0.17194,0.27628a0.5772,0.29512 0 0 1 -0.3193,0.13814a1.49828,0.76605 0 0 1 -0.5158,0.04395l-10.45108,0.01256zm7.24576,-1.41907a4.60535,2.35465 0 0 0 -0.1965,-0.70326a2.99655,1.53209 0 0 0 -0.61405,-0.59023a2.77549,1.41907 0 0 0 -1.05616,-0.40814a3.58603,1.83349 0 0 0 -1.52283,-0.1507a3.53691,1.80837 0 0 0 -2.59128,0.47721a4.82641,2.46767 0 0 0 -1.2281,1.37512l7.20892,0z" id="svg_18" stroke="null"/>
   </g>
  </g>
  <text fill="#ffffff" stroke-width="0" x="63.695007" y="26.9375" id="svg_20" font-size="24" font-family="Arvo, sans-serif" text-anchor="start" xml:space="preserve" transform="matrix(1.502364849815491,0,0,1.5172819644526323,13.287982075004948,51.559971546769276) " stroke="#000000" font-weight="bold">Copper</text>
  <text fill="#000000" stroke-width="0" stroke-opacity="null" fill-opacity="null" x="109.695007" y="29.9375" id="svg_21" font-size="24" font-family="Helvetica, Arial, sans-serif" text-anchor="start" xml:space="preserve" stroke="#fff"/>
  <text fill="#050000" stroke-width="0" x="116.695007" y="34.9375" id="svg_26" font-size="24" font-family="Arvo, sans-serif" text-anchor="start" xml:space="preserve" stroke="#000000"/>
  <text fill="#ffffff" stroke-width="0" x="63.695007" y="26.9375" id="svg_27" font-size="20" font-family="Arvo, sans-serif" text-anchor="start" xml:space="preserve" transform="matrix(1.502364849815491,0,0,1.517281964452632,-89.71201792499505,-10.440028453230722) " stroke="#000000" font-weight="bold">Copper Office</text>
 </g>
</svg>